<svg xmlns="http://www.w3.org/2000/svg" width="175.97" height="205.21" viewBox="0 0 175.97 205.21">
  <defs>
    <style>
      .cls-1 {
        fill: #05445f;
      }

      .cls-2 {
        fill: #1073b6;
      }
    </style>
  </defs>
  <g id="Layer_2" data-name="Layer 2">
    <g id="Layer_1-2" data-name="Layer 1">
      <g>
        <g>
          <path class="cls-1" d="M17.78,158.38a19.63,19.63,0,0,1-7.06-1.25,16.41,16.41,0,0,1-9.38-8.93,17.95,17.95,0,0,1,0-13.61,16.25,16.25,0,0,1,3.75-5.39,16.71,16.71,0,0,1,5.68-3.55,19.8,19.8,0,0,1,7.06-1.24,19.53,19.53,0,0,1,7.74,1.48,15,15,0,0,1,5.82,4.34l-4.93,4.5a11.2,11.2,0,0,0-3.73-2.91,10.56,10.56,0,0,0-4.53-1,11.32,11.32,0,0,0-4.22.77,10.08,10.08,0,0,0-3.33,2.18,9.77,9.77,0,0,0-2.18,3.33,12.08,12.08,0,0,0,0,8.54A9.58,9.58,0,0,0,10.65,149,10,10,0,0,0,14,151.18a11.32,11.32,0,0,0,4.22.77,10.3,10.3,0,0,0,4.53-1A11.4,11.4,0,0,0,26.46,148l4.93,4.5a15.28,15.28,0,0,1-5.82,4.37A19.47,19.47,0,0,1,17.78,158.38Z"/>
          <path class="cls-1" d="M42.88,157.81V131.17H32.37V125H61v6.2H50.48v26.64Z"/>
          <polygon class="cls-1" points="72.63 151.72 72.63 144.12 87.87 144.12 87.87 138.16 72.63 138.16 72.63 131.07 89.89 131.07 89.89 124.97 65.63 124.97 65.63 157.81 90.5 157.81 90.5 151.72 72.63 151.72"/>
          <path class="cls-2" d="M22.28,200.48a9.92,9.92,0,0,1-2.73,1.43,13.61,13.61,0,0,1-4.45.71,12.64,12.64,0,0,1-4.65-.84,11,11,0,0,1-3.72-2.4,10.89,10.89,0,0,1-2.47-3.62,11.92,11.92,0,0,1,0-9,10.85,10.85,0,0,1,2.47-3.61,11.18,11.18,0,0,1,3.72-2.4,12.74,12.74,0,0,1,4.69-.84,13.11,13.11,0,0,1,4.47.75,10.24,10.24,0,0,1,3.81,2.47l1.8-1.85a11.53,11.53,0,0,0-4.45-3,16.33,16.33,0,0,0-5.75-1,15.72,15.72,0,0,0-5.78,1,14.1,14.1,0,0,0-4.61,2.92,13.26,13.26,0,0,0-3,4.44,14.9,14.9,0,0,0,0,11.14,13.31,13.31,0,0,0,3,4.43,13.65,13.65,0,0,0,4.59,2.92,15.72,15.72,0,0,0,5.78,1,17.06,17.06,0,0,0,5.49-.88,13.14,13.14,0,0,0,4.59-2.61V191.25H22.28Z"/>
          <polygon class="cls-2" points="36.16 202.46 36.16 192.27 50.36 192.27 50.36 189.79 36.16 189.79 36.16 180.03 52.09 180.03 52.09 177.52 33.26 177.52 33.26 204.97 52.68 204.97 52.68 202.46 36.16 202.46"/>
          <polygon class="cls-2" points="79.58 177.52 79.58 199.79 61.89 177.52 59.5 177.52 59.5 204.97 62.4 204.97 62.4 182.71 80.05 204.97 82.45 204.97 82.45 177.52 79.58 177.52"/>
          <path class="cls-2" d="M103.39,205.21a15.67,15.67,0,0,1-5.75-1,13.58,13.58,0,0,1-4.59-2.94,13.78,13.78,0,0,1-3-4.43,14.93,14.93,0,0,1,0-11.1,13.72,13.72,0,0,1,3-4.44,13.91,13.91,0,0,1,4.57-2.94,16.42,16.42,0,0,1,11.5,0,14,14,0,0,1,4.57,2.92,13.51,13.51,0,0,1,3,4.44,15,15,0,0,1,0,11.14,13.46,13.46,0,0,1-3,4.43,13.86,13.86,0,0,1-4.57,2.92A15.53,15.53,0,0,1,103.39,205.21Zm0-2.59a12.18,12.18,0,0,0,4.57-.84,10.73,10.73,0,0,0,3.65-2.4,11.22,11.22,0,0,0,2.41-3.6,12.36,12.36,0,0,0,0-9.06,11.15,11.15,0,0,0-2.41-3.61,10.88,10.88,0,0,0-3.65-2.4,12.18,12.18,0,0,0-4.57-.84,12.32,12.32,0,0,0-4.59.84,11,11,0,0,0-6.12,6,12.31,12.31,0,0,0,0,9,11.09,11.09,0,0,0,2.43,3.62,10.9,10.9,0,0,0,3.69,2.4A12.32,12.32,0,0,0,103.39,202.62Z"/>
          <polygon class="cls-2" points="143.36 177.52 132.77 201.41 122.26 177.52 119.12 177.52 131.28 204.97 134.14 204.97 146.3 177.52 143.36 177.52"/>
          <path class="cls-2" d="M170,205H173l-12.55-27.45H157.6L145,205h3l3.29-7.33h15.32Zm-17.55-9.68L159,180.52l6.61,14.77Z"/>
          <path class="cls-1" d="M173.94,118H172.5V96.87A10.37,10.37,0,0,0,162.13,86.5H75.32a9.69,9.69,0,0,0-9.69,9.69V118h7.65a20.7,20.7,0,0,1,41.39,0H112.9a1.7,1.7,0,0,0-1.38,2.69L115,125.4v32.28h7.45V125.4l3.46-4.76A1.7,1.7,0,0,0,124.5,118h-1a20.7,20.7,0,0,1,41.39,0h-1.24a2,2,0,0,0-1.65,3.2l3.09,4.25v32.28h7.45V125.4l3.09-4.25A2,2,0,0,0,173.94,118Z"/>
        </g>
        <path class="cls-2" d="M11.51,112.32A79.52,79.52,0,0,1,4.78,80.14a80.15,80.15,0,0,1,154-31.2,79.65,79.65,0,0,1,6.3,31.2h-4.9A75.22,75.22,0,0,0,31.71,26.93,75.22,75.22,0,0,0,16,110.35Z"/>
        <path class="cls-2" d="M129,36.09A62.31,62.31,0,0,0,26.37,101.46c.44,1.22.94,2.46,1.48,3.69l.7-.3h0l.92-.41,1.63-.71c-.51-1.16-1-2.34-1.4-3.48a58.76,58.76,0,1,1,114-20.11h3.55A61.87,61.87,0,0,0,129,36.09Z"/>
        <path class="cls-2" d="M44.76,97.74a43.84,43.84,0,1,1,84-17.6h-2A41.82,41.82,0,1,0,46.61,96.93Z"/>
      </g>
    </g>
  </g>
</svg>
